<svg width="182" height="182" viewBox="0 0 182 182" fill="none" xmlns="http://www.w3.org/2000/svg">
<circle cx="83.5" cy="89.5" r="61.5" fill="#0F1722"/>
<path fill-rule="evenodd" clip-rule="evenodd" d="M109.434 60.7875C109.434 65.8005 105.37 69.8643 100.357 69.8643C96.592 69.8643 93.3624 67.5721 91.9877 64.3071H57.381C55.4561 64.3071 54.3646 64.9502 53.6954 65.7362C52.9562 66.6045 52.3795 68.0753 52.3795 70.2348C52.3795 72.3943 52.9562 73.8651 53.6954 74.7334C54.3646 75.5194 55.4561 76.1625 57.381 76.1625H80.3509C82.397 76.1625 84.0557 77.8212 84.0557 79.8673C84.0557 81.9134 82.397 83.5721 80.3509 83.5721H48.4895C46.5645 83.5721 45.473 84.2153 44.8038 85.0013C44.0646 85.8696 43.4879 87.3404 43.4879 89.4998C43.4879 91.6593 44.0646 93.1301 44.8038 93.9984C45.473 94.7844 46.5645 95.4276 48.4895 95.4276H82.7223L91.2171 78.9281C91.9158 77.5711 93.3141 76.7182 94.8404 76.7182H117.631C119.049 73.5521 122.227 71.3462 125.92 71.3462C130.933 71.3462 134.997 75.4101 134.997 80.423C134.997 85.436 130.933 89.4998 125.92 89.4998C122.227 89.4998 119.049 87.294 117.631 84.1279H96.874L91.0564 95.4276H102.157C103.613 92.361 106.739 90.2408 110.36 90.2408C115.373 90.2408 119.437 94.3046 119.437 99.3176C119.437 104.331 115.373 108.394 110.36 108.394C106.595 108.394 103.365 106.102 101.991 102.837H63.6792C61.7543 102.837 60.6628 103.48 59.9936 104.266C59.2544 105.135 58.6777 106.605 58.6777 108.765C58.6777 110.924 59.2544 112.395 59.9936 113.264C60.6628 114.049 61.7543 114.693 63.6792 114.693H90.3012C91.758 111.626 94.8837 109.506 98.5045 109.506C103.518 109.506 107.581 113.57 107.581 118.583C107.581 123.596 103.518 127.659 98.5045 127.659C94.7396 127.659 91.51 125.367 90.1353 122.102H63.6792C59.8617 122.102 56.6 120.708 54.3517 118.067C52.1734 115.508 51.2681 112.163 51.2681 108.765C51.2681 106.716 51.5972 104.687 52.3359 102.837H48.4895C44.6719 102.837 41.4103 101.443 39.1619 98.8017C36.9836 96.2431 36.0783 92.8976 36.0783 89.4998C36.0783 86.1021 36.9836 82.7566 39.1619 80.198C40.9283 78.1231 43.3202 76.8176 46.1156 76.3533C45.3221 74.4529 44.9699 72.354 44.9699 70.2348C44.9699 66.837 45.8752 63.4916 48.0535 60.9329C50.3018 58.292 53.5635 56.8974 57.381 56.8974H92.1536C93.6104 53.8308 96.7361 51.7107 100.357 51.7107C105.37 51.7107 109.434 55.7745 109.434 60.7875ZM103.877 60.7875C103.877 62.7313 102.301 64.3071 100.357 64.3071C98.4131 64.3071 96.8374 62.7313 96.8374 60.7875C96.8374 58.8437 98.4131 57.2679 100.357 57.2679C102.301 57.2679 103.877 58.8437 103.877 60.7875ZM125.92 83.9426C127.864 83.9426 129.44 82.3669 129.44 80.423C129.44 78.4792 127.864 76.9035 125.92 76.9035C123.976 76.9035 122.401 78.4792 122.401 80.423C122.401 82.3669 123.976 83.9426 125.92 83.9426ZM102.024 118.583C102.024 120.526 100.448 122.102 98.5045 122.102C96.5607 122.102 94.9849 120.526 94.9849 118.583C94.9849 116.639 96.5607 115.063 98.5045 115.063C100.448 115.063 102.024 116.639 102.024 118.583ZM110.36 102.837C112.304 102.837 113.88 101.261 113.88 99.3176C113.88 97.3738 112.304 95.798 110.36 95.798C108.416 95.798 106.84 97.3738 106.84 99.3176C106.84 101.261 108.416 102.837 110.36 102.837Z" fill="#6186B7"/>
</svg>
